HIERARCHY
ROOT hip
{
  OFFSET 0 0 0
  CHANNELS 6 Xposition Yposition Zposition Zrotation Yrotation Xrotation
  JOINT abdomen
  {
    OFFSET 0 20.6881 -0.73152
    CHANNELS 3 Zrotation Xrotation Yrotation
    JOINT chest
    {
      OFFSET 0 11.7043 -0.48768
      CHANNELS 3 Zrotation Xrotation Yrotation
      JOINT neck
      {
        OFFSET 0 22.1894 -2.19456
        CHANNELS 3 Zrotation Xrotation Yrotation
        JOINT head
        {
          OFFSET -0.24384 7.07133 1.2192
          CHANNELS 3 Zrotation Xrotation Yrotation
          JOINT leftEye
          {
            OFFSET 4.14528 8.04674 8.04672
            CHANNELS 3 Zrotation Xrotation Yrotation
            End Site
            {
              OFFSET 1 0 0
            }
          }
          JOINT rightEye
          {
            OFFSET -3.6576 8.04674 8.04672
            CHANNELS 3 Zrotation Xrotation Yrotation
            End Site
            {
              OFFSET 1 0 0
            }
          }
        }
      }
      JOINT rCollar
      {
        OFFSET -2.68224 19.2634 -4.8768
        CHANNELS 3 Zrotation Xrotation Yrotation
        JOINT rShldr
        {
          OFFSET -8.77824 -1.95073 1.46304
          CHANNELS 3 Zrotation Xrotation Yrotation
          JOINT rForeArm
          {
            OFFSET -28.1742 -1.7115 0.48768
            CHANNELS 3 Zrotation Xrotation Yrotation
            JOINT rHand
            {
              OFFSET -22.5879 0.773209 7.07136
              CHANNELS 3 Zrotation Xrotation Yrotation
              JOINT rThumb1
              {
                OFFSET -1.2192 -0.487915 3.41376
                CHANNELS 3 Zrotation Xrotation Yrotation
                JOINT rThumb2
                {
                  OFFSET -3.37035 -0.52449 3.41376
                  CHANNELS 3 Zrotation Xrotation Yrotation
                  End Site
                  {
                    OFFSET -1.78271 -1.18214 1.43049
                  }
                }
              }
              JOINT rIndex1
              {
                OFFSET -7.75947 0.938293 5.60832
                CHANNELS 3 Zrotation Xrotation Yrotation
                JOINT rIndex2
                {
                  OFFSET -2.54057 -0.884171 1.56538
                  CHANNELS 3 Zrotation Xrotation Yrotation
                  End Site
                  {
                    OFFSET -1.62519 -0.234802 1.16502
                  }
                }
              }
              JOINT rMid1
              {
                OFFSET -8.24714 1.18213 3.41376
                CHANNELS 3 Zrotation Xrotation Yrotation
                JOINT rMid2
                {
                  OFFSET -3.10165 -0.590103 1.0647
                  CHANNELS 3 Zrotation Xrotation Yrotation
                  End Site
                  {
                    OFFSET -2.48547 -0.328903 0.83742
                  }
                }
              }
              JOINT rRing1
              {
                OFFSET -8.82822 0.546677 1.51678
                CHANNELS 3 Zrotation Xrotation Yrotation
                JOINT rRing2
                {
                  OFFSET -2.60934 -0.819778 -0.0198488
                  CHANNELS 3 Zrotation Xrotation Yrotation
                  End Site
                  {
                    OFFSET -2.33842 -0.294052 0.168128
                  }
                }
              }
              JOINT rPinky1
              {
                OFFSET -8.27202 -0.0477905 -0.4584
                CHANNELS 3 Zrotation Xrotation Yrotation
                JOINT rPinky2
                {
                  OFFSET -1.82734 -0.647385 -0.700984
                  CHANNELS 3 Zrotation Xrotation Yrotation
                  End Site
                  {
                    OFFSET -1.69225 -0.51767 -0.607171
                  }
                }
              }
            }
          }
        }
      }
      JOINT lCollar
      {
        OFFSET 2.68224 19.2634 -4.8768
        CHANNELS 3 Zrotation Xrotation Yrotation
        JOINT lShldr
        {
          OFFSET 8.77824 -1.95073 1.46304
          CHANNELS 3 Zrotation Xrotation Yrotation
          JOINT lForeArm
          {
            OFFSET 28.1742 -1.7115 0.48768
            CHANNELS 3 Zrotation Xrotation Yrotation
            JOINT lHand
            {
              OFFSET 22.5879 0.773209 7.07136
              CHANNELS 3 Zrotation Xrotation Yrotation
              JOINT lThumb1
              {
                OFFSET 1.2192 -0.487915 3.41376
                CHANNELS 3 Zrotation Xrotation Yrotation
                JOINT lThumb2
                {
                  OFFSET 3.37035 -0.52449 3.41376
                  CHANNELS 3 Zrotation Xrotation Yrotation
                  End Site
                  {
                    OFFSET 1.78271 -1.18214 1.43049
                  }
                }
              }
              JOINT lIndex1
              {
                OFFSET 7.75947 0.938293 5.60832
                CHANNELS 3 Zrotation Xrotation Yrotation
                JOINT lIndex2
                {
                  OFFSET 2.54057 -0.884171 1.56538
                  CHANNELS 3 Zrotation Xrotation Yrotation
                  End Site
                  {
                    OFFSET 1.62519 -0.234802 1.16502
                  }
                }
              }
              JOINT lMid1
              {
                OFFSET 8.24714 1.18213 3.41376
                CHANNELS 3 Zrotation Xrotation Yrotation
                JOINT lMid2
                {
                  OFFSET 3.10165 -0.590103 1.0647
                  CHANNELS 3 Zrotation Xrotation Yrotation
                  End Site
                  {
                    OFFSET 2.48547 -0.328903 0.83742
                  }
                }
              }
              JOINT lRing1
              {
                OFFSET 8.82822 0.546677 1.51678
                CHANNELS 3 Zrotation Xrotation Yrotation
                JOINT lRing2
                {
                  OFFSET 2.60934 -0.819778 -0.0198488
                  CHANNELS 3 Zrotation Xrotation Yrotation
                  End Site
                  {
                    OFFSET 2.33842 -0.294052 0.168128
                  }
                }
              }
              JOINT lPinky1
              {
                OFFSET 8.27202 -0.0477905 -0.4584
                CHANNELS 3 Zrotation Xrotation Yrotation
                JOINT lPinky2
                {
                  OFFSET 1.82734 -0.647385 -0.700984
                  CHANNELS 3 Zrotation Xrotation Yrotation
                  End Site
                  {
                    OFFSET 1.69225 -0.51767 -0.607171
                  }
                }
              }
            }
          }
        }
      }
    }
  }
  JOINT rButtock
  {
    OFFSET -8.77824 4.35084 1.2192
    CHANNELS 3 Zrotation Xrotation Yrotation
    JOINT rThigh
    {
      OFFSET 0 -1.70687 -2.19456
      CHANNELS 3 Zrotation Xrotation Yrotation
      JOINT rShin
      {
        OFFSET 0 -36.8199 0.73152
        CHANNELS 3 Zrotation Xrotation Yrotation
        JOINT rFoot
        {
          OFFSET 0.73152 -45.1104 -5.12064
          CHANNELS 3 Zrotation Xrotation Yrotation
          End Site
          {
            OFFSET -1.1221 -3.69964 12.103
          }
        }
      }
    }
  }
  JOINT lButtock
  {
    OFFSET 8.77824 4.35084 1.2192
    CHANNELS 3 Zrotation Xrotation Yrotation
    JOINT lThigh
    {
      OFFSET 0 -1.70687 -2.19456
      CHANNELS 3 Zrotation Xrotation Yrotation
      JOINT lShin
      {
        OFFSET 0 -36.8199 0.73152
        CHANNELS 3 Zrotation Xrotation Yrotation
        JOINT lFoot
        {
          OFFSET -0.73152 -45.1104 -5.12064
          CHANNELS 3 Zrotation Xrotation Yrotation
          End Site
          {
            OFFSET 1.1221 -3.69964 12.103
          }
        }
      }
    }
  }
}
MOTION
Frames:	4
Frame Time:	0.03333
12.814151961356401 65.69401621818542 18.457150273025036 -13.508648872375488 -9.98332691192627 7.081722259521484 12.428586959838867 3.634582042694092 8.23929214477539 1.3512418270111084 -7.010586261749268 2.3571536540985107 -2.138246774673462 10.953526496887207 -0.7004173994064331 5.124907493591309 -18.52836799621582 0.38224849104881287 5.764799061580561e-05 0.17625463008880615 -0.3128681778907776 0.09727022796869278 -0.3077189028263092 0.07427103817462921 -0.09808120131492615 -0.09139630943536758 -0.44713184237480164 27.34282112121582 50.022438049316406 59.55826187133789 -17.231996536254883 -9.708341598510742 32.83464813232422 -4.383049964904785 47.13417053222656 8.797173500061035 0.17838536202907562 0.014633212238550186 -0.11668549478054047 0.11072418093681335 0.3537767231464386 0.15104232728481293 0.31984975934028625 0.24989187717437744 0.05085168778896332 8.088470458984375 5.920333385467529 0.5319197773933411 0.19421367347240448 0.11970390379428864 0.6165494322776794 2.4693093299865723 0.8979366421699524 -0.11739915609359741 0.3134292662143707 -0.00506451353430748 0.2277231067419052 10.036383628845215 0.6852697730064392 0.0266053956001997 -0.12314143031835556 -0.14733311533927917 0.2520016133785248 2.7674789428710938 -0.6576852798461914 -0.4909047782421112 -0.6853548884391785 0.07510049641132355 0.01605735719203949 -75.54087829589844 20.076589584350586 -63.78469467163086 26.476598739624023 -23.72400665283203 -57.95769119262695 4.459743499755859 -50.5478401184082 9.288578033447266 -0.03599879518151283 0.0719991996884346 0.0705411285161972 0.2951669692993164 0.07660544663667679 0.008127710781991482 0.28472188115119934 0.04731811210513115 0.11384440213441849 -7.608354091644287 5.415234088897705 -0.5336042642593384 0.008591189049184322 0.042183611541986465 -0.04996656998991966 -3.0130510330200195 0.6425715088844299 0.057175468653440475 0.20151686668395996 0.029789745807647705 0.12018579244613647 -9.986753463745117 0.5857324600219727 -0.2454948127269745 0.07003097981214523 0.21795785427093506 0.07802331447601318 -2.0989294052124023 -0.7672467231750488 0.1659460961818695 -0.15611866116523743 0.044159896671772 0.42234355211257935 5.97126579284668 3.853111743927002 -15.642447471618652 -0.5438488125801086 45.17025375366211 1.7904728651046753 -15.316842079162598 -12.784433364868164 -36.90544509887695 -0.15759427845478058 0.10399547219276428 0.08690489083528519 60.65404510498047 -59.95530319213867 56.003448486328125 3.333909034729004 76.47711944580078 -3.969856023788452 2.8791744709014893 -4.901054382324219 10.399625778198242
13.05802296847105 65.60400128364563 18.751543946564198 -13.086613655090332 -9.18724250793457 7.459255218505859 11.83773136138916 3.6747777462005615 8.219675064086914 1.4774439334869385 -7.045324325561523 2.3276689052581787 -2.2038497924804688 10.933756828308105 -0.7201486229896545 5.102105140686035 -18.85881996154785 0.3165384829044342 0.03908943757414818 0.1988150030374527 -0.333337664604187 0.11957003176212311 -0.34150373935699463 0.11578633636236191 -0.10972535610198975 -0.09667634218931198 -0.4645463228225708 25.24481201171875 49.971858978271484 61.3901481628418 -17.030193328857422 -9.504227638244629 32.469120025634766 -4.151332378387451 46.169944763183594 8.470887184143066 0.19764629006385803 0.001796011347323656 -0.10977283865213394 0.10098757594823837 0.3486061990261078 0.13673490285873413 0.31268301606178284 0.2394251972436905 0.07283569127321243 8.054006576538086 5.926684379577637 0.5381447672843933 0.23529234528541565 0.07669150829315186 0.6387634873390198 2.443688154220581 0.900518000125885 -0.13777419924736023 0.27175188064575195 -0.027621814981102943 0.24676543474197388 10.047181129455566 0.7170586585998535 0.015708498656749725 -0.1032245010137558 -0.14122313261032104 0.2907882034778595 2.7673089504241943 -0.6425658464431763 -0.4848627746105194 -0.7240596413612366 0.0497569814324379 0.008335175924003124 -74.44831848144531 19.817489624023438 -64.30818176269531 26.583398818969727 -23.88854217529297 -58.339839935302734 4.093877792358398 -49.26803207397461 8.808436393737793 -3.260844459873624e-05 0.0941598042845726 0.031729038804769516 0.3341885209083557 0.08849235624074936 0.004935418255627155 0.2942795753479004 0.05174718424677849 0.07783807069063187 -7.6038031578063965 5.401881694793701 -0.5515185594558716 0.010661802254617214 0.039735667407512665 -0.04103855416178703 -3.0061519145965576 0.6446630954742432 0.07054121047258377 0.23857903480529785 0.017438167706131935 0.1092965230345726 -9.944108963012695 0.5905809998512268 -0.25535455346107483 0.03089667297899723 0.22916284203529358 0.00877547450363636 -2.1016733646392822 -0.7614402174949646 0.16900703310966492 -0.12698815762996674 0.013636942952871323 0.4466831088066101 5.632834434509277 3.622152805328369 -14.956009864807129 -0.6118632555007935 45.270599365234375 1.7425086498260498 -14.347122192382812 -11.573960304260254 -35.96949005126953 -0.1632843315601349 0.11759249120950699 0.0691094771027565 59.3335075378418 -60.06269454956055 55.43416213989258 3.2298879623413086 76.54377746582031 -3.8168208599090576 3.388339042663574 -5.35526180267334 12.035006523132324
13.356618117541075 65.56901335716248 19.02008969336748 -12.530865669250488 -9.855224609375 7.702643871307373 11.17345142364502 3.8483290672302246 8.205357551574707 1.5612618923187256 -7.092978000640869 2.299126386642456 -2.3195505142211914 10.92953872680664 -0.6312543153762817 4.991656303405762 -19.329904556274414 0.32741421461105347 0.08152961730957031 0.21629926562309265 -0.35436126589775085 0.1592855155467987 -0.3683328330516815 0.1651916801929474 -0.12960520386695862 -0.11614278703927994 -0.45811644196510315 22.390968322753906 49.76707077026367 63.9033088684082 -16.701969146728516 -9.186224937438965 31.872262954711914 -3.9633331298828125 45.30742645263672 8.201862335205078 0.22266530990600586 -0.007202675100415945 -0.1310534030199051 0.09637407958507538 0.34865039587020874 0.13359728455543518 0.31102484464645386 0.22992464900016785 0.08938148617744446 8.015249252319336 5.934365272521973 0.5611990094184875 0.28404638171195984 0.034571945667266846 0.6399921774864197 2.3884127140045166 0.9009150266647339 -0.14463503658771515 0.21229815483093262 -0.039613112807273865 0.2540435791015625 10.082843780517578 0.7654261589050293 0.014248394407331944 -0.09435109794139862 -0.12959231436252594 0.3273163437843323 2.7703795433044434 -0.621696412563324 -0.47852152585983276 -0.7304254770278931 0.02882213518023491 0.001019681803882122 -72.85186767578125 19.5355224609375 -65.23673248291016 26.77743911743164 -24.206317901611328 -59.04472732543945 3.850189447402954 -48.31221008300781 8.451632499694824 0.019437236711382866 0.12693394720554352 -0.013852030970156193 0.40839558839797974 0.09671611338853836 0.0012609715340659022 0.3077172040939331 0.04977990314364433 0.03464864194393158 -7.598804473876953 5.404750823974609 -0.5702106952667236 0.012666583992540836 0.04988878592848778 -0.03124823048710823 -2.983175039291382 0.6641557216644287 0.06843240559101105 0.303365558385849 -0.00018222945800516754 0.10829874873161316 -9.906928062438965 0.5972217321395874 -0.2775420844554901 -0.015563172288239002 0.24926848709583282 -0.0626382976770401 -2.114722967147827 -0.7397463917732239 0.162016361951828 -0.07254979759454727 -0.0045884959399700165 0.46957671642303467 5.098863124847412 3.0152828693389893 -14.229236602783203 -0.6829833388328552 46.08687973022461 1.7226678133010864 -13.298993110656738 -10.208728790283203 -34.92075729370117 -0.15018688142299652 0.1280672550201416 0.044814541935920715 57.69507598876953 -60.301795959472656 54.720947265625 3.056565999984741 76.6578140258789 -3.5609853267669678 3.9307706356048584 -5.681933403015137 13.860628128051758
13.734582625329494 65.42444229125977 19.283966906368732 -11.79013729095459 -10.442830085754395 8.056533813476562 10.43606948852539 3.954760789871216 8.14282512664795 1.6468654870986938 -7.152522087097168 2.2811591625213623 -2.4913229942321777 10.924726486206055 -0.5565910935401917 4.842373847961426 -19.807514190673828 0.310340940952301 0.13169759511947632 0.22949013113975525 -0.3518936336040497 0.18588615953922272 -0.3865416347980499 0.21840666234493256 -0.14537347853183746 -0.12565745413303375 -0.44102969765663147 19.3892765045166 49.398826599121094 66.19357299804688 -16.19110679626465 -8.683606147766113 30.871986389160156 -3.7592761516571045 44.25194549560547 7.939778804779053 0.2516411542892456 -0.0036533514503389597 -0.15497760474681854 0.12106809765100479 0.3413926959037781 0.13086731731891632 0.30648717284202576 0.2002144455909729 0.09427398443222046 7.9553070068359375 5.937599182128906 0.5996125936508179 0.323831707239151 -0.01734164170920849 0.6246650815010071 2.3147284984588623 0.901384174823761 -0.14674009382724762 0.1413578987121582 -0.04423437640070915 0.26014724373817444 10.127058029174805 0.8382735252380371 0.0168286245316267 -0.0867265984416008 -0.12075508385896683 0.35053569078445435 2.7716143131256104 -0.6214175224304199 -0.4494536221027374 -0.7144339680671692 0.004693842492997646 -0.012581667862832546 -70.91895294189453 19.12105941772461 -66.1473617553711 26.943063735961914 -24.424375534057617 -59.5751953125 3.547532796859741 -47.066139221191406 8.002445220947266 0.05742647871375084 0.1752295345067978 -0.07043967396020889 0.4794404208660126 0.10436064004898071 -0.022554337978363037 0.30091822147369385 0.03854575380682945 0.0020118996035307646 -7.576355457305908 5.414154052734375 -0.5820937156677246 0.00012675778998527676 0.05801359564065933 -0.04600580781698227 -2.9562580585479736 0.7064083218574524 0.056480977684259415 0.3859560489654541 -0.013978071510791779 0.12179196625947952 -9.864298820495605 0.5963171124458313 -0.27685868740081787 -0.05228406935930252 0.23554132878780365 -0.14551156759262085 -2.1353201866149902 -0.7297274470329285 0.17303283512592316 0.017373843118548393 -0.021699728444218636 0.490750253200531 4.478725433349609 2.3982322216033936 -13.270965576171875 -0.7207033038139343 47.09490203857422 1.6924777030944824 -11.968450546264648 -8.526033401489258 -33.4782829284668 -0.1467873901128769 0.13438226282596588 0.027125637978315353 55.0695686340332 -60.45302963256836 53.14453125 2.7913265228271484 76.38526916503906 -3.1827220916748047 4.469386100769043 -5.921056747436523 15.813908576965332
